<svg width="62" height="61" viewBox="0 0 62 61" fill="none" xmlns="http://www.w3.org/2000/svg">
<g clip-path="url(#clip0_81_1143)">
<path d="M44.0423 32.3029C44.7905 33.3326 46.405 33.4351 47.6484 32.5317C48.8919 31.6283 49.2934 30.0611 48.5452 29.0314L37.7079 14.1151C36.9598 13.0853 35.3452 12.9829 34.1018 13.8863C32.8583 14.7897 32.4568 16.3569 33.205 17.3866L44.0423 32.3029Z" stroke="#E0FE10" stroke-width="2" stroke-linejoin="round"/>
<path d="M24.5296 46.4797C25.2778 47.5094 26.8923 47.6119 28.1358 46.7084C29.3792 45.805 29.7807 44.2378 29.0325 43.2081L18.1952 28.2918C17.4471 27.2621 15.8326 27.1596 14.5891 28.063C13.3456 28.9665 12.9442 30.5336 13.6923 31.5634L24.5296 46.4797Z" stroke="#E0FE10" stroke-width="2" stroke-linejoin="round"/>
<path d="M45.9053 25.3979C46.6726 26.4541 48.3027 26.5779 49.5462 25.6745C50.7896 24.7711 51.1756 23.1825 50.4082 22.1263L44.8506 14.477C44.0832 13.4208 42.4532 13.297 41.2097 14.2004C39.9663 15.1038 39.5803 16.6923 40.3477 17.7485L45.9053 25.3979Z" stroke="#E0FE10" stroke-width="2" stroke-linejoin="round"/>
<path d="M17.387 46.1177C18.1543 47.1739 19.7844 47.2978 21.0278 46.3943C22.2713 45.4909 22.6572 43.9024 21.8899 42.8462L16.3323 35.1968C15.5649 34.1406 13.9349 34.0168 12.6914 34.9202C11.448 35.8237 11.062 37.4122 11.8294 38.4684L17.387 46.1177Z" stroke="#E0FE10" stroke-width="2" stroke-linejoin="round"/>
<path d="M22.0508 33.5986L37.0605 22.6934L40.1867 26.9961L25.177 37.9013L22.0508 33.5986Z" stroke="#E0FE10" stroke-width="2" stroke-linejoin="round"/>
</g>
<defs>
<clipPath id="clip0_81_1143">
<rect width="44.5272" height="42.5482" fill="white" transform="translate(61.635 34.4223) rotate(144)"/>
</clipPath>
</defs>
</svg>
