<svg width="41" height="41" viewBox="0 0 41 41" fill="none" xmlns="http://www.w3.org/2000/svg">
<path d="M1.70825 37.5833C1.70825 38.5058 2.477 39.2917 3.41659 39.2917H25.6249C26.5816 39.2917 27.3333 38.5058 27.3333 37.5833V35.875H1.70825V37.5833ZM14.5208 15.375C8.1145 15.375 1.70825 18.7917 1.70825 25.625H27.3333C27.3333 18.7917 20.927 15.375 14.5208 15.375ZM6.18409 22.2083C8.08034 19.5604 12.112 18.7917 14.5208 18.7917C16.9295 18.7917 20.9612 19.5604 22.8574 22.2083H6.18409ZM1.70825 29.0417H27.3333V32.4583H1.70825V29.0417ZM30.7499 8.54168V1.70834H27.3333V8.54168H18.7916L19.1845 11.9583H35.5162L33.1245 35.875H30.7499V39.2917H33.6883C35.1233 39.2917 36.302 38.1813 36.4728 36.7804L39.2916 8.54168H30.7499Z" fill="white"/>
</svg>
