<svg width="39" height="39" viewBox="0 0 39 39" fill="none" xmlns="http://www.w3.org/2000/svg">
<path d="M32.4999 13L22.7499 4.45251C21.8561 3.65308 20.699 3.21112 19.4999 3.21112C18.3008 3.21112 17.1437 3.65308 16.2499 4.45251L6.49991 13C5.98376 13.4616 5.57187 14.0279 5.29168 14.6612C5.01148 15.2944 4.86941 15.9801 4.87491 16.6725V30.875C4.87491 32.1679 5.38852 33.4079 6.30276 34.3222C7.217 35.2364 8.45698 35.75 9.74991 35.75H29.2499C30.5428 35.75 31.7828 35.2364 32.6971 34.3222C33.6113 33.4079 34.1249 32.1679 34.1249 30.875V16.6563C34.1281 15.9665 33.9849 15.284 33.7048 14.6537C33.4247 14.0235 33.014 13.4598 32.4999 13ZM22.7499 32.5H16.2499V24.375C16.2499 23.944 16.4211 23.5307 16.7259 23.226C17.0306 22.9212 17.4439 22.75 17.8749 22.75H21.1249C21.5559 22.75 21.9692 22.9212 22.274 23.226C22.5787 23.5307 22.7499 23.944 22.7499 24.375V32.5ZM30.8749 30.875C30.8749 31.306 30.7037 31.7193 30.399 32.0241C30.0942 32.3288 29.6809 32.5 29.2499 32.5H25.9999V24.375C25.9999 23.0821 25.4863 21.8421 24.5721 20.9279C23.6578 20.0136 22.4178 19.5 21.1249 19.5H17.8749C16.582 19.5 15.342 20.0136 14.4278 20.9279C13.5135 21.8421 12.9999 23.0821 12.9999 24.375V32.5H9.74991C9.31893 32.5 8.90561 32.3288 8.60086 32.0241C8.29612 31.7193 8.12491 31.306 8.12491 30.875V16.6563C8.1252 16.4255 8.17462 16.1975 8.26989 15.9874C8.36515 15.7772 8.50407 15.5898 8.67741 15.4375L18.4274 6.90626C18.724 6.64574 19.1052 6.50207 19.4999 6.50207C19.8946 6.50207 20.2759 6.64574 20.5724 6.90626L30.3224 15.4375C30.4957 15.5898 30.6347 15.7772 30.7299 15.9874C30.8252 16.1975 30.8746 16.4255 30.8749 16.6563V30.875Z" fill="#FEFEFE"/>
</svg>
